<svg width="50" height="50" viewBox="0 0 50 50" fill="none" xmlns="http://www.w3.org/2000/svg">
<path d="M49.089 25C49.089 38.304 38.304 49.089 25 49.089C11.696 49.089 0.910959 38.304 0.910959 25C0.910959 11.696 11.696 0.910959 25 0.910959C38.304 0.910959 49.089 11.696 49.089 25Z" stroke="white" stroke-width="1.82192"/>
<path d="M26.9434 25.2023H26.0324V26.1133V36.589H23.2498V26.1182V25.2072H22.3389H19.4266V22.5711H22.3389H23.2498V21.6602V18.3789C23.2498 16.6655 23.769 15.4503 24.5654 14.6636C25.3646 13.874 26.5446 13.4158 28.0566 13.4158C29.0482 13.4158 29.9484 13.4625 30.5734 13.5092V15.7443H29.1455C28.1022 15.7443 27.2255 15.9901 26.6556 16.6665C26.1153 17.3078 26.0324 18.1355 26.0324 18.8184V21.6553V22.5662H26.9434H30.3211L29.9805 25.2023H26.9434Z" fill="white" stroke="white" stroke-width="1.82192"/>
</svg>
