<svg width="51" height="51" viewBox="0 0 51 51" fill="none" xmlns="http://www.w3.org/2000/svg">
<path d="M49.1998 25.1098C49.1998 38.4143 38.4143 49.1998 25.1098 49.1998C11.8052 49.1998 1.01977 38.4143 1.01977 25.1098C1.01977 11.8052 11.8052 1.01977 25.1098 1.01977C38.4143 1.01977 49.1998 11.8052 49.1998 25.1098Z" stroke="white" stroke-width="1.82"/>
<path d="M14.1183 17.248L14.1178 17.2494C13.8497 17.9429 13.6563 18.7534 13.5969 19.9968L14.1183 17.248ZM14.1183 17.248C14.3936 16.5322 14.7511 15.9455 15.3506 15.3502C15.9551 14.7499 16.5452 14.3872 17.2542 14.1129L14.1183 17.248ZM17.2528 36.0964L17.2542 36.0969C17.9478 36.365 18.7583 36.5584 20.0017 36.6178L17.2528 36.0964ZM17.2528 36.0964C16.54 35.8222 15.9518 35.4605 15.3539 34.8629C14.7542 34.2587 14.3918 33.6688 14.1176 32.9601C13.8498 32.2669 13.6565 31.4569 13.5969 30.2145C13.5393 28.9027 13.5247 28.4922 13.5247 25.1049C13.5247 21.7131 13.5345 21.3067 13.5969 19.997L17.2528 36.0964ZM36.1012 32.9618L36.1018 32.9604C36.3698 32.2669 36.5632 31.4564 36.6227 30.213L36.1012 32.9618ZM36.1012 32.9618C35.8271 33.6746 35.4654 34.2628 34.8679 34.8606C34.2636 35.4604 33.6737 35.8228 32.965 36.097C32.2718 36.3649 31.4618 36.5582 30.2195 36.6177C28.9076 36.6754 28.4972 36.69 25.1098 36.69C21.718 36.69 21.3115 36.6802 20.0018 36.6178L36.1012 32.9618ZM32.9667 14.1134L32.9653 14.1129C32.2721 13.8449 31.462 13.6516 30.2194 13.5921C28.9076 13.5344 28.4971 13.5198 25.1098 13.5198C21.7224 13.5198 21.312 13.5344 20.0001 13.5921C18.7532 13.6516 17.948 13.8448 17.2545 14.1128L32.9667 14.1134ZM32.9667 14.1134C33.6795 14.3876 34.2677 14.7492 34.8655 15.3467C35.4653 15.951 35.8277 16.5409 36.1019 17.2497C36.3698 17.9428 36.5631 18.7528 36.6226 19.9951C36.6803 21.3071 36.6949 21.7175 36.6949 25.1049C36.6949 28.4967 36.685 28.9031 36.6227 30.2128L32.9667 14.1134ZM30.2039 14.0249L30.2071 14.025C31.5185 14.088 32.2769 14.3067 32.8147 14.5212C33.5191 14.792 34.0387 15.1355 34.5631 15.6541L34.5703 15.6613L34.5703 15.6613C35.0899 16.1868 35.4337 16.7074 35.7048 17.4139C35.9103 17.9429 36.1365 18.6995 36.1947 20.0205C36.1947 20.0207 36.1947 20.0208 36.1947 20.0209L35.2856 20.0609L30.2039 14.0249ZM30.2039 14.0249C28.905 13.9672 28.475 13.9516 25.3967 13.9508L25.3478 13.9166H25.0609C21.7105 13.9166 21.3077 13.9313 19.964 13.9807L19.964 13.9806L19.9502 13.9813C18.635 14.0497 17.8862 14.2746 17.3594 14.479C16.6341 14.7497 16.1172 15.1103 15.604 15.6235C15.0861 16.1414 14.7307 16.6531 14.4605 17.3809C14.2464 17.9193 14.0295 18.6856 13.9617 19.9893L13.9616 19.9893L13.9611 20.0031C13.9117 21.3468 13.897 21.7643 13.897 25.1C13.897 28.4307 13.9117 28.8485 13.9611 30.1778L13.961 30.1778L13.9617 30.1912C14.0302 31.5069 14.2552 32.2708 14.4608 32.8001C14.7266 33.4961 15.076 34.0291 15.604 34.5521C16.1322 35.0853 16.6499 35.4153 17.3475 35.692L17.3475 35.692L17.3532 35.6942C17.8826 35.9001 18.6469 36.1258 19.9649 36.1943L19.9687 36.1945M30.2039 14.0249L19.9687 36.1945M19.9687 36.1945C21.3184 36.259 21.7259 36.2737 25.0756 36.2737C28.4254 36.2737 28.8314 36.259 30.1791 36.1996L19.9687 36.1945ZM31.7846 17.8508L31.79 17.8508C32.1054 17.8489 32.3736 18.1094 32.3736 18.4398C32.3736 18.7654 32.1091 19.0289 31.7846 19.0289C31.459 19.0289 31.1956 18.7644 31.1956 18.4398C31.1956 18.1172 31.462 17.8508 31.7846 17.8508ZM19.5989 25.1098C19.5989 22.0674 22.0674 19.5989 25.1098 19.5989C28.1521 19.5989 30.6207 22.0674 30.6207 25.1098C30.6207 28.1521 28.1521 30.6207 25.1098 30.6207C22.0674 30.6207 19.5989 28.1521 19.5989 25.1098ZM20.0347 25.1098C20.0347 27.9122 22.3074 30.1848 25.1098 30.1848C27.9122 30.1848 30.1848 27.9122 30.1848 25.1098C30.1848 22.3074 27.9122 20.0347 25.1098 20.0347C22.3074 20.0347 20.0347 22.3074 20.0347 25.1098Z" fill="white" stroke="white" stroke-width="1.82"/>
</svg>
