<svg width="51" height="51" viewBox="0 0 51 51" fill="none" xmlns="http://www.w3.org/2000/svg">
<path d="M49.3882 25.2983C49.3882 38.6028 38.6028 49.3883 25.2982 49.3883C11.9937 49.3883 1.20824 38.6028 1.20824 25.2983C1.20824 11.9937 11.9937 1.20825 25.2982 1.20825C38.6028 1.20825 49.3882 11.9937 49.3882 25.2983Z" stroke="white" stroke-width="1.82"/>
<path d="M36.0054 17.8255L33.5843 19.6933L36.6327 19.4532L36.5613 18.546C36.6327 19.4532 36.6329 19.4532 36.633 19.4531L36.6333 19.4531L36.6341 19.4531L36.6362 19.4529L36.6426 19.4524L36.6641 19.4505C36.6823 19.4489 36.7079 19.4466 36.7401 19.4435C36.7664 19.4409 36.7972 19.4378 36.8321 19.4341C36.6312 19.6251 36.4086 19.8315 36.1621 20.0543L35.8339 20.3509L35.8643 20.7906L35.8643 20.7908L35.8643 20.7914L35.8644 20.7922L35.8645 20.7933L35.8655 20.8116C35.8664 20.8293 35.8677 20.8582 35.8691 20.8974C35.8717 20.9759 35.8743 21.0959 35.8733 21.2522C35.8715 21.5652 35.8555 22.0225 35.7983 22.5832C35.6834 23.7073 35.4041 25.2313 34.7502 26.8374C33.4575 30.0121 30.6867 33.5613 24.6245 34.9759L24.6211 34.9766C24.6119 34.9785 24.5967 34.9815 24.5758 34.9855C24.5339 34.9934 24.4691 35.0053 24.3833 35.0195C24.2116 35.0479 23.9565 35.0857 23.634 35.1209C22.9877 35.1915 22.077 35.251 21.0277 35.2059C19.8786 35.1564 18.5884 34.9826 17.3052 34.5755C18.846 34.3079 20.6328 33.6562 21.9955 32.1538L23.3943 30.6114L21.3168 30.6324L21.3165 30.6324L21.3025 30.6322C21.2868 30.6318 21.2593 30.6309 21.2213 30.6286C21.1452 30.6239 21.0285 30.6137 20.882 30.5915C20.587 30.5469 20.1838 30.4554 19.7542 30.2705C19.1972 30.0308 18.5894 29.6337 18.1059 28.9509C18.446 28.9232 18.8126 28.8534 19.1459 28.7024L21.6932 27.5484L18.9591 26.9833C18.9596 26.9834 18.9593 26.9833 18.9581 26.9831C18.9581 26.9831 18.958 26.983 18.958 26.983L18.9399 26.9788C18.9211 26.9742 18.8891 26.9661 18.8459 26.9538C18.7592 26.9291 18.6287 26.8881 18.4693 26.8261C18.1481 26.7011 17.7238 26.4965 17.306 26.1803C16.7413 25.753 16.1711 25.1129 15.8888 24.1317C16.2298 24.2134 16.6138 24.2542 17.0081 24.1958L18.9971 23.9016L17.4658 22.6035L17.4653 22.6031L17.4652 22.603L17.4639 22.602L17.4632 22.6013L17.4439 22.5841C17.425 22.5671 17.3946 22.5392 17.355 22.5009C17.2755 22.4241 17.1598 22.3067 17.0254 22.1533C16.7546 21.844 16.4194 21.4015 16.1489 20.8621C15.7512 20.069 15.4965 19.0859 15.7866 17.9738C16.3605 18.5235 17.1698 19.2338 18.163 19.9352C20.2144 21.3838 23.1537 22.8666 26.4754 22.679L27.58 22.6167L27.3056 21.5448C27.2186 21.2047 27.1716 20.8489 27.1716 20.4807C27.1716 18.1247 29.0897 16.2082 31.4617 16.2082C32.6596 16.2082 33.7415 16.6967 34.5212 17.4861L34.7822 17.7503L35.1534 17.7565C35.4169 17.7609 35.7677 17.7487 36.1773 17.6903C36.1219 17.7347 36.0647 17.7798 36.0054 17.8255Z" fill="white" stroke="white" stroke-width="1.82"/>
</svg>
